<?xml version="1.0" encoding="UTF-8" standalone="no"?>
<!-- Created with Inkscape (http://www.inkscape.org/) -->

<svg
   xmlns:dc="http://purl.org/dc/elements/1.1/"
   xmlns:cc="http://creativecommons.org/ns#"
   xmlns:rdf="http://www.w3.org/1999/02/22-rdf-syntax-ns#"
   xmlns:svg="http://www.w3.org/2000/svg"
   xmlns="http://www.w3.org/2000/svg"
   version="1.1"
   width="20"
   height="20"
   id="svg2">
  <defs
     id="defs4">
	
	
	
	
	

		
	
			
		</defs>
  <metadata
     id="metadata7">
    <rdf:RDF>
      <cc:Work
         rdf:about="">
        <dc:format>image/svg+xml</dc:format>
        <dc:type
           rdf:resource="http://purl.org/dc/dcmitype/StillImage" />
        <dc:title></dc:title>
      </cc:Work>
    </rdf:RDF>
  </metadata>
  <g
     transform="translate(0,-1032.3622)"
     id="layer1">
    <path
       d="m 10.0276,1052.3622 c 1.46,0 3.6542,-0.6452 3.6542,-4.4496 0,-0.8418 -0.0206,-2.1314 -0.1492,-3.3814 -0.0036,-0.033 -2.262,-0.2302 -3.5492,-0.2302 h 0.0868 c -1.287,0 -3.5454,0.197 -3.5488,0.2302 -0.1288,1.25 -0.149,2.5396 -0.149,3.3814 0,3.8044 2.1938,4.4496 3.654,4.4496"
       id="path2988"
       style="fill:#fffff1" />
    <path
       d="m 9.6924,1043.675 c -1.2406,-0.01 -2.2042,0.062 -3.1448,0.1876 0.1228,-0.8732 0.3072,-1.6624 0.587,-2.1684 0.5098,-0.9196 1.658,-0.9452 2.5594,-0.9244 l -0.0016,2.9052 z"
       id="path2990"
       style="fill:#c90000" />
    <path
       d="m 10.3544,1043.6612 c 1.2406,-0.01 2.2042,0.063 3.1444,0.188 -0.1224,-0.8736 -0.3066,-1.6624 -0.5868,-2.1686 -0.5096,-0.9198 -1.6578,-0.9454 -2.5592,-0.9244 l 0.0016,2.905 z"
       id="path2992"
       style="fill:#fffff1" />
    <path
       d="m 6.3182,1047.9126 c 0,3.8044 2.1942,4.4496 3.654,4.4496"
       id="path2994"
       style="fill:#fffff1" />
    <path
       d="m 10.3528,1040.7612 -0.6588,0.01 2e-4,-0.229 c -0.001,-0.3654 -0.0022,-0.7428 0.0568,-1.1222 0.1018,-0.6574 0.4034,-1.255 0.8964,-1.7758 0.1676,-0.1776 0.3478,-0.3224 0.522,-0.4624 0.1084,-0.086 0.209,-0.168 0.3064,-0.2554 0.221,-0.199 0.3928,-0.3684 0.4272,-0.5842 0.0646,-0.4172 -0.1084,-0.777 -0.5146,-1.069 -0.137,-0.098 -0.2972,-0.1788 -0.4676,-0.2642 -0.4252,-0.2146 -0.907,-0.4578 -1.1266,-1.0382 -0.1974,-0.5184 -0.0756,-1.1492 0.309,-1.6072 l 0.4938,0.4146 c -0.2332,0.278 -0.314,0.6652 -0.2012,0.9636 0.1312,0.346 0.4474,0.5058 0.8144,0.691 0.185,0.093 0.376,0.1896 0.5526,0.3164 0.6038,0.433 0.8796,1.0344 0.7766,1.6926 -0.0716,0.4594 -0.3958,0.751 -0.632,0.964 -0.1104,0.1 -0.2246,0.191 -0.3338,0.279 -0.1644,0.1324 -0.3204,0.2574 -0.4574,0.4026 -0.4002,0.4246 -0.6456,0.9062 -0.7264,1.432 -0.0522,0.3292 -0.037,0.6674 -0.0356,1.023 v 0.22 h -0.0014 z"
       id="path3000"
       style="fill:#fffff1" />
  </g>
</svg>
